<?xml version="1.0" encoding="utf-8"?>
<!-- Generator: Adobe Illustrator 23.0.4, SVG Export Plug-In . SVG Version: 6.00 Build 0)  -->
<svg version="1.1" id="Layer_1" xmlns="http://www.w3.org/2000/svg" xmlns:xlink="http://www.w3.org/1999/xlink" x="0px" y="0px"
	 viewBox="0 0 1117.6 287.6" style="enable-background:new 0 0 1117.6 287.6;" xml:space="preserve">
<style type="text/css">
	.st0{fill:#040F21;}
	.st1{filter:url(#Adobe_OpacityMaskFilter);}
	.st2{mask:url(#SVGID_1_);}
	.st3{fill:url(#SVGID_2_);}
	.st4{filter:url(#Adobe_OpacityMaskFilter_1_);}
	.st5{filter:url(#Adobe_OpacityMaskFilter_2_);}
	.st6{mask:url(#SVGID_3_);}
</style>
<g>
	<path class="st0" d="M183.8,212.8c-10.7,2.7-23.3,4.9-34.6,4.9c-39.1,0-56.6-13.2-56.6-73.3s21-74.7,58.7-74.7
		c11.1,0,22.4,1.6,32.5,4.5l-3.3,21c-8.8-2.5-18.1-3.9-27-3.9c-23.1,0-32.9,7.2-32.9,52.3c0,45.3,9.5,52.5,32.9,52.5
		c8.7,0,17.7-1.6,27-4.3L183.8,212.8z"/>
	<path class="st0" d="M348.9,72.2h42.8c36,0,50.7,7.6,50.7,41.2c0,32.9-15,46.1-52.7,46.1h-13v55.8h-27.8V72.2z M390.5,138.5
		c17.1,0,24.3-7.2,24.3-24.1c0-16.9-6.2-21.2-23.7-21.2h-14.4v45.3H390.5z"/>
	<path class="st0" d="M488.7,161.9l-44.7-89.8h28l18.9,35.4c5.6,10.1,8.4,17.3,12.6,27h0.6c4.1-10.5,6.8-17.3,11.5-27l17.9-35.4
		h27.8l-45.3,90v53.1h-27.4V161.9z"/>
	<path class="st0" d="M576.1,72.2h27.8v120.7h51.1v22.4h-78.9V72.2z"/>
	<path class="st0" d="M672,72.2h82.1v21.6h-54.4v37.7h50.4v21.2h-50.4v41h54.4v21.6H672V72.2z"/>
	<path class="st0" d="M807.5,72.2h41.4l42,143.1h-29l-10.5-36h-47.6l-10.5,36h-27.2L807.5,72.2z M846.8,158l-10.1-35.8
		c-3.5-11.3-6.2-21.6-9.3-32.7h-0.2c-3.1,11.5-5.8,21.8-9.3,33.6l-9.9,35H846.8z"/>
	<path class="st0" d="M908.4,72.2h27.8v67.9l43.2-67.9h31.9l-46.7,69l49.2,74.1H981l-44.9-70v70h-27.8V72.2z"/>
	<path class="st0" d="M1024.3,192c11.3,2.9,22,4.7,34.6,4.7c18.3,0,26.6-6.4,26.6-17.7c0-10.7-5.3-14.4-29.9-27
		c-27-13.8-35.8-21.8-35.8-43.4c0-23.5,15.2-38.9,51.7-38.9c12.6,0,23.3,1.9,32.1,4.3l-2.9,20.8c-9.3-2.5-17.5-4.1-29.7-4.1
		c-17.7,0-25.3,5.8-25.3,15.6c0,9.7,5.6,13.6,29,25.5c28.8,15,36.9,22.2,36.9,43.9c0,25.9-16.3,42-53.1,42
		c-12.8,0-24.9-1.9-36.8-4.9L1024.3,192z"/>
	<defs>
		<filter id="Adobe_OpacityMaskFilter" filterUnits="userSpaceOnUse" x="17.1" y="20.2" width="253.2" height="253.2">
			<feFlood  style="flood-color:white;flood-opacity:1" result="back"/>
			<feBlend  in="SourceGraphic" in2="back" mode="normal"/>
		</filter>
	</defs>
	<mask maskUnits="userSpaceOnUse" x="17.1" y="20.2" width="253.2" height="253.2" id="SVGID_1_">
		<g class="st1">
		</g>
	</mask>
	<g class="st2">
		<linearGradient id="SVGID_2_" gradientUnits="userSpaceOnUse" x1="143.7583" y1="398.373" x2="143.7583" y2="-102.6448">
			<stop  offset="0.2141" style="stop-color:#3F97F5"/>
			<stop  offset="0.8297" style="stop-color:#3FA9F5"/>
		</linearGradient>
		<path class="st3" d="M143.8,273.4c-69.8,0-126.6-56.8-126.6-126.6S73.9,20.2,143.8,20.2S270.4,77,270.4,146.8
			S213.6,273.4,143.8,273.4z M143.8,48.4c-54.2,0-98.4,44.1-98.4,98.4c0,54.2,44.1,98.4,98.4,98.4s98.4-44.1,98.4-98.4
			C242.1,92.5,198,48.4,143.8,48.4z"/>
	</g>
	<defs>
		<filter id="Adobe_OpacityMaskFilter_1_" filterUnits="userSpaceOnUse" x="207.3" y="69.3" width="115.5" height="148.9">
			<feFlood  style="flood-color:white;flood-opacity:1" result="back"/>
			<feBlend  in="SourceGraphic" in2="back" mode="normal"/>
		</filter>
	</defs>
	<mask maskUnits="userSpaceOnUse" x="207.3" y="69.3" width="115.5" height="148.9" id="SVGID_3_">
		<g class="st4">
			<defs>
				<filter id="Adobe_OpacityMaskFilter_2_" filterUnits="userSpaceOnUse" x="209.9" y="53.1" width="55.7" height="67.3">
					<feFlood  style="flood-color:white;flood-opacity:1" result="back"/>
					<feBlend  in="SourceGraphic" in2="back" mode="normal"/>
				</filter>
			</defs>
			<mask maskUnits="userSpaceOnUse" x="209.9" y="53.1" width="55.7" height="67.3" id="SVGID_3_">
				<g class="st5">
				</g>
			</mask>
			<g class="st6">
				<path d="M238.7,120.4c-5-17.9-14.9-34-28.7-46.6l18.8-20.7c17.8,16.1,30.5,36.8,36.9,59.8L238.7,120.4z"/>
			</g>
		</g>
	</mask>
	<path class="st0" d="M264.1,218.2c-37.9,0-56.8-13-56.8-73.7s20.6-75.2,58.7-75.2c37.9,0,56.8,13,56.8,73.7S302,218.2,264.1,218.2z
		 M264.9,90.9c-20.8,0-29.6,8.4-29.6,52.7c0,44.3,8.9,52.9,29.6,52.9c21,0,30.1-8.4,30.1-52.7S285.9,90.9,264.9,90.9z"/>
</g>
</svg>
