<?xml version="1.0" encoding="UTF-8"?>
<svg width="34px" height="38px" viewBox="0 0 34 38" version="1.1" xmlns="http://www.w3.org/2000/svg" xmlns:xlink="http://www.w3.org/1999/xlink">
    <!-- Generator: Sketch 48.1 (47250) - http://www.bohemiancoding.com/sketch -->
    <title>Group@3x</title>
    <desc>Created with Sketch.</desc>
    <defs></defs>
    <g id="Elment-Break" stroke="none" stroke-width="1" fill="none" fill-rule="evenodd" transform="translate(-847.000000, -143.000000)">
        <g id="Group" transform="translate(847.000000, 143.000000)" fill="#F5F5F5" fill-rule="nonzero">
            <path d="M8,38 L34,38 L34,4 L30,0 L8,0 L8,38 Z M17.8484848,9.5 L27.6969697,9.5 L27.6969697,11.4791667 L17.8484848,11.4791667 L17.8484848,9.5 Z M17.8484848,13.4583333 L27.6969697,13.4583333 L27.6969697,15.4375 L17.8484848,15.4375 L17.8484848,13.4583333 Z M23.7575758,17.6249412 L13.9090909,31.2708333 L29.6666667,31.2708333 L29.6666667,7.52083333 L15.9574305,7.52083333 L15.9036228,17.6249412 L21.7997834,17.6249412 L23.7575758,17.6249412 Z M8,5.54166667 L15.8787879,5.54166667 L31.6363636,5.54166667 L31.6363636,33.25 L11.9669508,33.25 L9.90446902,35.2291667 L8,33.25 L8,29.2916667 L8,7.52083333 L8,5.54166667 Z" id="Rectangle-7"></path>
            <path d="M12,22 L12,10 L8,10 L8,22 L3.88637865,22 L10,30.5590699 L16.1136214,22 L12,22 Z M14,20 L20,20 L10,34 L0,20 L6,20 L6,8 L14,8 L14,20 Z" id="Combined-Shape-Copy"></path>
        </g>
    </g>
</svg>