<?xml version="1.0" encoding="UTF-8"?>
<svg width="52px" height="52px" viewBox="0 0 52 52" version="1.1" xmlns="http://www.w3.org/2000/svg" xmlns:xlink="http://www.w3.org/1999/xlink">
    <!-- Generator: Sketch 48.1 (47250) - http://www.bohemiancoding.com/sketch -->
    <title>DocType/url@3x</title>
    <desc>Created with Sketch.</desc>
    <defs></defs>
    <g id="Artboard" stroke="none" stroke-width="1" fill="none" fill-rule="evenodd" transform="translate(-115.000000, -38.000000)">
        <g id="DocType/Web" transform="translate(113.000000, 32.000000)">
            <path d="M27.974,6 C13.622,6 2,17.648 2,32 C2,46.352 13.622,58 27.974,58 C42.352,58 54,46.352 54,32 C54,17.648 42.352,6 27.974,6 Z M45.992,21.6 L38.322,21.6 C37.49,18.35 36.294,15.23 34.734,12.344 C39.518,13.982 43.496,17.31 45.992,21.6 Z M28,11.304 C30.158,14.424 31.848,17.882 32.966,21.6 L23.034,21.6 C24.152,17.882 25.842,14.424 28,11.304 Z M7.876,37.2 C7.46,35.536 7.2,33.794 7.2,32 C7.2,30.206 7.46,28.464 7.876,26.8 L16.664,26.8 C16.456,28.516 16.3,30.232 16.3,32 C16.3,33.768 16.456,35.484 16.664,37.2 L7.876,37.2 Z M10.008,42.4 L17.678,42.4 C18.51,45.65 19.706,48.77 21.266,51.656 C16.482,50.018 12.504,46.716 10.008,42.4 Z M17.678,21.6 L10.008,21.6 C12.504,17.284 16.482,13.982 21.266,12.344 C19.706,15.23 18.51,18.35 17.678,21.6 Z M28,52.696 C25.842,49.576 24.152,46.118 23.034,42.4 L32.966,42.4 C31.848,46.118 30.158,49.576 28,52.696 Z M34.084,37.2 L21.916,37.2 C21.682,35.484 21.5,33.768 21.5,32 C21.5,30.232 21.682,28.49 21.916,26.8 L34.084,26.8 C34.318,28.49 34.5,30.232 34.5,32 C34.5,33.768 34.318,35.484 34.084,37.2 Z M34.734,51.656 C36.294,48.77 37.49,45.65 38.322,42.4 L45.992,42.4 C43.496,46.69 39.518,50.018 34.734,51.656 Z M39.336,37.2 C39.5439121,35.484 39.6998462,33.768 39.6998462,32 C39.6998462,30.232 39.5439121,28.516 39.336,26.8 L48.1202857,26.8 C48.5361099,28.464 48.796,30.206 48.796,32 C48.796,33.794 48.5361099,35.536 48.1202857,37.2 L39.336,37.2 Z" id="Shape" fill="#333333" fill-rule="nonzero"></path>
            <g id="DocType/tag">
                <polygon id="PDF" fill="#17A1FF" fill-rule="evenodd" points="14 32 14 50 53 50 53 32"></polygon>
                <text id="PDF" font-family="Roboto-Bold, Roboto" font-size="14" font-weight="bold" fill="#FFFFFF">
                    <tspan x="25.2285156" y="46">url</tspan>
                </text>
            </g>
        </g>
    </g>
</svg>