<?xml version="1.0" encoding="UTF-8"?>
<svg width="24px" height="24px" viewBox="0 0 24 24" version="1.1" xmlns="http://www.w3.org/2000/svg" xmlns:xlink="http://www.w3.org/1999/xlink">
    <!-- Generator: Sketch 48.1 (47250) - http://www.bohemiancoding.com/sketch -->
    <title>ic/view_columnHalf/white Copy@3x</title>
    <desc>Created with Sketch.</desc>
    <defs>
        <path d="M3,20 L9,20 L9,5 L3,5 C1.8954305,5 1,5.8954305 1,7 L1,18 C1,19.1045695 1.8954305,20 3,20 Z" id="path-1"></path>
    </defs>
    <g id="Symbols" stroke="none" stroke-width="1" fill="none" fill-rule="evenodd">
        <g id="ic/view_columnHalf/white-Copy">
            <g id="ic_view_column_24px">
                <polygon id="Path" fill="#FFFFFF" points="11 3 11 5 13 5 13 3"></polygon>
                <polygon id="Path" fill="#FFFFFF" points="11 7 11 9 13 9 13 7"></polygon>
                <polygon id="Path" fill="#FFFFFF" points="11 11 11 13 13 13 13 11"></polygon>
                <polygon id="Path" fill="#FFFFFF" points="11 16 11 18 13 18 13 16"></polygon>
                <polygon id="Path" fill="#FFFFFF" points="11 20 11 22 13 22 13 20"></polygon>
                <g id="Path">
                    <use fill="#FFFFFF" fill-rule="evenodd" xlink:href="#path-1"></use>
                    <path stroke="#FFFFFF" stroke-width="2" d="M8,19 L8,6 L3,6 C2.44771525,6 2,6.44771525 2,7 L2,18 C2,18.5522847 2.44771525,19 3,19 L8,19 Z"></path>
                </g>
                <path d="M16,6 L16,19 L21,19 C21.5522847,19 22,18.5522847 22,18 L22,7 C22,6.44771525 21.5522847,6 21,6 L16,6 Z" id="Path" stroke="#FFFFFF" stroke-width="2"></path>
                <polygon id="Shape" points="0 0 24 0 24 24 0 24"></polygon>
            </g>
        </g>
    </g>
</svg>